HIERARCHY
ROOT Hips
{
	OFFSET 0.00 0.00 0.00
	CHANNELS 6 Xposition Yposition Zposition Xrotation Yrotation Zrotation
	JOINT RightUpLeg
	{
		OFFSET -3.69398 0.00000 0.00000
		CHANNELS 3 Xrotation Yrotation Zrotation
		JOINT RightLeg
		{
			OFFSET 0.00000 -15.79567 0.00000
			CHANNELS 3 Xrotation Yrotation Zrotation
			JOINT RightFoot
			{
				OFFSET 0.00000 -14.76699 0.00000
				CHANNELS 3 Xrotation Yrotation Zrotation
				JOINT RightToeBase
				{
					OFFSET 0.00000 -1.28446 4.79369
					CHANNELS 3 Xrotation Yrotation Zrotation
					End Site
					{
						OFFSET 0.00000 0.00000 2.95275
					}
				}
			}
		}
	}
	JOINT LeftUpLeg
	{
		OFFSET 3.69398 0.00000 0.00000
		CHANNELS 3 Xrotation Yrotation Zrotation
		JOINT LeftLeg
		{
			OFFSET 0.00000 -15.79567 0.00000
			CHANNELS 3 Xrotation Yrotation Zrotation
			JOINT LeftFoot
			{
				OFFSET 0.00000 -14.76699 0.00000
				CHANNELS 3 Xrotation Yrotation Zrotation
				JOINT LeftToeBase
				{
					OFFSET 0.00000 -1.28446 4.79369
					CHANNELS 3 Xrotation Yrotation Zrotation
					End Site
					{
						OFFSET 0.00000 0.00000 2.95275
					}
				}
			}
		}
	}
	JOINT Spine
	{
		OFFSET 0.00000 2.39296 0.00000
		CHANNELS 3 Xrotation Yrotation Zrotation
		JOINT RightShoulder
		{
			OFFSET 0.00000 13.20741 0.00000
			CHANNELS 3 Xrotation Yrotation Zrotation
			JOINT RightArm
			{
				OFFSET -8.14047 0.00000 0.00000
				CHANNELS 3 Xrotation Yrotation Zrotation
				JOINT RightForeArm
				{
					OFFSET -10.64984 0.00000 0.00000
					CHANNELS 3 Yrotation Zrotation Xrotation
					JOINT RightHand
					{
						OFFSET -8.30462 0.00000 0.00000
						CHANNELS 3 Xrotation Yrotation Zrotation
						End Site
						{
							OFFSET -3.93700 0.00000 0.00000
						}
						JOINT RightHandThumb1
						{
							OFFSET 0.00000 0.00000 0.00000
							CHANNELS 3 Xrotation Zrotation Yrotation
							End Site
							{
								OFFSET 0.00000 0.00000 3.93700
							}
						}
					}
				}
			}
		}
		JOINT LeftShoulder
		{
			OFFSET 0.00000 13.20741 0.00000
			CHANNELS 3 Xrotation Yrotation Zrotation
			JOINT LeftArm
			{
				OFFSET 8.14047 0.00000 0.00000
				CHANNELS 3 Xrotation Yrotation Zrotation
				JOINT LeftForeArm
				{
					OFFSET 10.64984 0.00000 0.00000
					CHANNELS 3 Yrotation Zrotation Xrotation
					JOINT LeftHand
					{
						OFFSET 8.30462 0.00000 0.00000
						CHANNELS 3 Xrotation Yrotation Zrotation
						End Site
						{
							OFFSET 3.93700 0.00000 0.00000
						}
						JOINT LeftHandThumb1
						{
							OFFSET 0.00000 0.00000 0.00000
							CHANNELS 3 Xrotation Zrotation Yrotation
							End Site
							{
								OFFSET 0.00000 0.00000 3.93700
							}
						}
					}
				}
			}
		}
		JOINT Head
		{
			OFFSET 0.00000 19.25010 0.00000
			CHANNELS 3 Xrotation Yrotation Zrotation
			End Site
			{
				OFFSET 0.00000 4.52755 0.00000
			}
		}
	}
}
MOTION
Frames: 11
Frame Time: 0.008333
 1.7924 32.8296 -6.9938 43.8208 4.3930 -1.7492 -36.9654 -9.5285 -1.8486 -1.9583 -0.0000 -0.0000 -9.3694 -6.6126 16.8636 16.9416 0.0000 0.0000 -39.3610 4.2075 0.4314 2.2387 0.0000 0.0000 -8.0107 -2.8367 -8.1315 7.1682 -0.0000 0.0000 -46.2851 -0.2312 -1.4246 -22.1451 -4.5951 -44.1345 8.1269 8.0615 41.7411 -7.2272 -0.0000 -8.0214 -1.2172 7.3158 9.4733 32.8623 0.0000 -24.3270 -5.5253 10.1730 41.0147 -27.3125 -2.9364 -38.6703 3.4604 0.0000 18.2344 0.8944 25.8615 -2.0497 33.1476 -0.0000 26.2537 6.4732 -2.8872 5.0270
 1.7961 32.8319 -7.0330 43.8749 4.3953 -1.7768 -37.1113 -9.5547 -1.8542 -1.8879 -0.0000 -0.0000 -9.3988 -6.7181 16.9510 17.1050 -0.0000 0.0000 -39.4710 4.3062 0.4413 2.2075 0.0000 -0.0000 -7.9747 -2.9050 -8.2103 7.2374 -0.0000 0.0000 -46.2374 -0.2459 -1.4141 -22.1616 -4.5819 -44.0866 8.1137 8.1088 41.7655 -7.1781 -0.0000 -8.0066 -1.2042 7.2647 9.4382 32.8623 0.0000 -24.3270 -5.5364 10.1671 41.0464 -27.2823 -2.9401 -38.6881 3.4918 0.0000 18.1628 0.9661 25.8474 -2.2152 33.1476 -0.0000 26.2537 6.4411 -2.8737 5.0538
 1.7982 32.8340 -7.0691 43.9072 4.4210 -1.8178 -37.2314 -9.6234 -1.8589 -1.8073 0.0000 0.0000 -9.4384 -6.8319 17.0894 17.2400 0.0000 0.0000 -39.5569 4.3631 0.4491 2.1770 0.0000 0.0000 -7.9322 -2.9357 -8.2493 7.3029 0.0000 -0.0000 -46.1760 -0.2524 -1.4120 -22.1505 -4.6068 -44.0557 8.1329 8.1846 41.7996 -7.1400 -0.0000 -8.1269 -1.2110 7.3195 9.4208 32.8623 0.0000 -24.3270 -5.5343 10.1203 41.0731 -27.2423 -2.9467 -38.6947 3.5325 0.0000 18.1136 1.0002 25.8423 -2.2935 33.1476 -0.0000 26.2537 6.4203 -2.8812 5.0940
 1.8003 32.8365 -7.1055 43.9565 4.4408 -1.8525 -37.3851 -9.6391 -1.8675 -1.6867 -0.0000 -0.0000 -9.5108 -7.0644 17.1849 17.5912 0.0000 0.0000 -39.6581 4.4178 0.4559 2.1434 -0.0000 0.0000 -7.8882 -2.9593 -8.3504 7.4004 -0.0000 -0.0000 -46.1343 -0.2400 -1.4158 -22.1522 -4.6342 -44.0297 8.1148 8.2314 41.8357 -7.1146 -0.0000 -8.1446 -1.2217 7.3899 9.4144 32.8623 0.0000 -24.3270 -5.5248 10.0797 41.1031 -27.2715 -2.9301 -38.7029 3.5836 0.0000 18.1399 1.0324 25.8594 -2.3659 33.1476 -0.0000 26.2537 6.4156 -2.9145 5.1517
 1.8029 32.8392 -7.1429 44.0004 4.4830 -1.9054 -37.5343 -9.6430 -1.8795 -1.5592 0.0000 0.0000 -9.5837 -7.3636 17.1639 17.2752 0.0000 -0.0000 -39.7703 4.4337 0.4573 2.1400 -0.0000 0.0000 -7.8690 -2.9522 -8.3803 7.4618 -0.0000 0.0000 -46.0838 -0.2701 -1.4143 -22.1294 -4.6707 -44.0071 8.0698 8.3026 41.8829 -7.1034 -0.0000 -8.1727 -1.2331 7.4373 9.4414 32.8623 0.0000 -24.3270 -5.5188 10.0547 41.1155 -27.2773 -2.9350 -38.6928 3.6192 0.0000 18.1626 1.0958 25.8687 -2.5101 33.1476 -0.0000 26.2537 6.4038 -2.9346 5.1899
 1.8067 32.8412 -7.1762 44.0211 4.5292 -1.9705 -37.6505 -9.6817 -1.8788 -1.4488 -0.0000 -0.0000 -9.6902 -7.6219 17.1044 17.6071 -0.0000 -0.0000 -39.8500 4.4242 0.4618 2.1284 -0.0000 -0.0000 -7.8605 -2.9124 -8.3263 7.5796 -0.0000 0.0000 -46.0234 -0.3216 -1.4008 -22.1288 -4.6585 -43.9915 8.0209 8.3265 41.9371 -7.1050 -0.0000 -8.2513 -1.2130 7.3782 9.3632 32.8623 0.0000 -24.3270 -5.5105 10.0384 41.1484 -27.3277 -2.8741 -38.7141 3.6185 0.0000 18.2549 1.0732 25.8337 -2.4616 33.1476 -0.0000 26.2537 6.4193 -2.9379 5.2295
 1.8097 32.8435 -7.2069 44.0427 4.5693 -2.0171 -37.7698 -9.6732 -1.8888 -1.3100 0.0000 0.0000 -9.8369 -7.9873 16.7182 17.7048 0.0000 -0.0000 -39.9242 4.4504 0.4577 2.1165 -0.0000 -0.0000 -7.8451 -2.8829 -8.3069 7.6654 0.0000 0.0000 -45.9764 -0.3461 -1.4021 -22.1131 -4.6411 -43.9708 7.9166 8.2649 41.9875 -7.1120 -0.0000 -8.1160 -1.2193 7.4131 9.3675 32.8623 0.0000 -24.3270 -5.4743 10.0418 41.1570 -27.5161 -2.7907 -38.7064 3.6652 0.0000 18.4457 1.0633 25.8430 -2.4382 33.1476 -0.0000 26.2537 6.4614 -2.9511 5.2830
 1.8126 32.8455 -7.2397 44.0613 4.6298 -2.1004 -37.8892 -9.6982 -1.8866 -1.1504 0.0000 -0.0000 -10.0055 -8.3669 16.3374 17.7268 0.0000 -0.0000 -40.0230 4.4317 0.4659 2.1460 0.0000 0.0000 -7.8561 -2.8328 -8.2873 7.7912 -0.0000 -0.0000 -45.9154 -0.4055 -1.3864 -22.1326 -4.5825 -43.9564 7.9623 8.2482 42.0178 -7.0832 -0.0000 -8.1146 -1.2234 7.3687 9.4538 32.8623 0.0000 -24.3270 -5.4728 10.0238 41.1655 -27.5488 -2.7968 -38.7004 3.6787 0.0000 18.5561 0.9728 25.9267 -2.2240 33.1476 -0.0000 26.2537 6.4838 -2.9650 5.3373
 1.8162 32.8473 -7.2696 44.0653 4.6957 -2.1803 -37.9773 -9.6986 -1.8892 -0.9934 0.0000 -0.0000 -10.2223 -8.8322 15.6902 17.3591 0.0000 0.0000 -40.1016 4.3886 0.4665 2.1775 0.0000 -0.0000 -7.8684 -2.7717 -8.1677 7.8219 0.0000 -0.0000 -45.8446 -0.4521 -1.3709 -22.1395 -4.5821 -43.9446 7.9768 8.3071 42.0341 -7.0915 -0.0000 -8.2069 -1.2124 7.2396 9.5329 32.8623 0.0000 -24.3270 -5.4585 10.0250 41.1885 -27.2927 -3.0182 -38.7250 3.5891 0.0000 18.2265 0.9779 25.9499 -2.2339 33.1476 -0.0000 26.2537 6.5078 -3.0037 5.3808
 1.8201 32.8483 -7.2939 44.0479 4.7576 -2.2542 -38.0418 -9.7430 -1.8939 -0.8269 -0.0000 0.0000 -10.4368 -9.3983 15.2302 16.8294 -0.0000 -0.0000 -40.1479 4.3659 0.4688 2.2117 -0.0000 -0.0000 -7.9098 -2.7095 -8.1076 8.0655 0.0000 0.0000 -45.7744 -0.4823 -1.3520 -22.1073 -4.5921 -43.9351 7.9777 8.3091 42.0503 -7.0619 -0.0000 -8.1996 -1.2156 7.2769 9.5101 32.8623 0.0000 -24.3270 -5.4345 10.0200 41.1838 -27.3062 -3.0910 -38.7237 3.5614 0.0000 18.1786 0.9659 25.8798 -2.2120 33.1476 -0.0000 26.2537 6.5755 -3.0418 5.4077
 1.8216 32.8492 -7.3182 44.0120 4.8421 -2.3556 -38.0693 -9.7802 -1.8871 -0.6758 -0.0000 -0.0000 -10.5854 -10.0007 14.6115 16.2286 0.0000 -0.0000 -40.1920 4.3155 0.4832 2.2699 -0.0000 0.0000 -7.9670 -2.6328 -7.9764 8.2525 0.0000 -0.0000 -45.6817 -0.5599 -1.3329 -22.0874 -4.5699 -43.9347 7.9711 8.3178 42.0849 -7.1242 -0.0000 -8.2675 -1.2250 7.3553 9.4826 32.8623 0.0000 -24.3270 -5.4112 10.0167 41.1704 -27.2860 -3.1754 -38.6931 3.5252 0.0000 18.1559 0.9691 25.8525 -2.2216 33.1476 -0.0000 26.2537 6.6345 -3.0634 5.4398
